<svg viewBox="0 0 72 72" xmlns="http://www.w3.org/2000/svg"><circle cx="36" cy="36.8833" fill="#fff" r="25"/><path d="m10.8833 36.8833c0 13.6133 10.8253 24.6897 24.3381 25.0915-6.5806-.4018-11.7797-5.8647-11.7797-12.5332 0-6.9322 5.6137-12.5583 12.5583-12.5583 6.9322 0 12.5583-5.6261 12.5583-12.5583 0-6.6685-5.2117-12.1313-11.7923-12.5332-.2511-.0126-.5022-.0251-.766-.0251s-.5275 0-.7786.0251c-13.5128.4019-24.3381 11.4783-24.3381 25.0915z" fill="#3f3f3f"/><circle cx="37.3437" cy="48.9394" fill="#3f3f3f" r="4.0187"/><circle cx="37.3437" cy="23.8227" fill="#fff" r="4.0187"/><g fill="none" stroke="#000" stroke-miterlimit="10" stroke-width="2"><path d="m23.4417 49.4417c0 6.6685 5.1992 12.1314 11.7797 12.5332.2637.0125.5148.0251.7786.0251s.5149-.0126.766-.0251c13.5128-.3893 24.3506-11.4657 24.3506-25.0915s-10.8379-24.7022-24.3506-25.0915c6.5806.4019 11.7923 5.8647 11.7923 12.5332 0 6.9322-5.6261 12.5583-12.5583 12.5583-6.9446-.0001-12.5583 5.626-12.5583 12.5583z" stroke-linecap="round" stroke-linejoin="round"/><path d="m10.8833 36.8833c0 13.6133 10.8253 24.6897 24.3381 25.0915-6.5806-.4018-11.7797-5.8647-11.7797-12.5332 0-6.9322 5.6137-12.5583 12.5583-12.5583 6.9322 0 12.5583-5.6261 12.5583-12.5583 0-6.6685-5.2117-12.1313-11.7923-12.5332-.2511-.0126-.5022-.0251-.766-.0251s-.5275 0-.7786.0251c-13.5128.4019-24.3381 11.4783-24.3381 25.0915z" stroke-linecap="round" stroke-linejoin="round"/><circle cx="37.3437" cy="48.9394" r="4.0187"/><circle cx="37.3437" cy="23.8227" r="4.0187"/></g></svg>